<svg xmlns="http://www.w3.org/2000/svg" viewBox="0 0 16 16" shape-rendering="crispEdges">
  <rect width="16" height="16" fill="none"/>
  <rect x="7" y="2" width="2" height="1" fill="#eab308"/>
  <rect x="6" y="3" width="4" height="1" fill="#facc15"/>
  <rect x="5" y="4" width="6" height="1" fill="#fde047"/>
  <rect x="5" y="5" width="6" height="1" fill="#facc15"/>
  <rect x="5" y="6" width="6" height="1" fill="#fde047"/>
  <rect x="5" y="7" width="6" height="1" fill="#facc15"/>
  <rect x="5" y="8" width="6" height="1" fill="#fde047"/>
  <rect x="5" y="9" width="6" height="1" fill="#facc15"/>
  <rect x="6" y="10" width="4" height="1" fill="#fde047"/>
  <rect x="7" y="11" width="2" height="1" fill="#facc15"/>
  <rect x="4" y="8" width="1" height="3" fill="#16a34a"/>
  <rect x="3" y="10" width="1" height="2" fill="#15803d"/>
  <rect x="10" y="8" width="1" height="3" fill="#16a34a"/>
  <rect x="11" y="10" width="1" height="2" fill="#15803d"/>
  <rect x="6" y="12" width="1" height="1" fill="#15803d"/>
  <rect x="9" y="12" width="1" height="1" fill="#15803d"/>
  <rect x="7" y="12" width="2" height="1" fill="#16a34a"/>
</svg>
